# xmcd
#
# Track frame offsets:
#	183
#	8743
#	21583
#	36260
#	59358
#	69850
#	82645
#	95773
#	115443
#	127355
#	142170
#	161228
#	174663
#	188050
#	203065
#	217283
#	230583
#	244403
#
# Disc length: 3440
#
# Revision: 1
# Processed by: cddbd v1.5.1PL0 Copyright (c) Steve Scherf et al.
# Submitted via: CDex 1.50
# Normalized: r0:DSETVAR1,TDELIM( - )
#
DISCID=140d6e12
DTITLE=Various Artist - Jazz - Vol. 1
DYEAR=1990
DGENRE=Jazz
TTITLE0=Frank Sinatra - On the sunny side of the street
TTITLE1=Duke Ellington - Black and tan fantasy
TTITLE2=Cab Calloway - Minnie the Moocher
TTITLE3=Nina Simone - My way
TTITLE4=Lena Horne - The lady is a tramp
TTITLE5=Django Reinhardt - Lady be good
TTITLE6=Marilyn Monroe - I wanna be loved by you
TTITLE7=Count Basie - One o'clock jump
TTITLE8=Ella Fitzgerald - Cryin' mood
TTITLE9=Artie Shaw - Begin the beguine
TTITLE10=Nat King Cole - The trouble with me is you
TTITLE11=Dizzy Gillespie - Blue and Boogie
TTITLE12=Billie Holiday - My man
TTITLE13=Glenn Miller - In the mood
TTITLE14=Judy Garland - Over the rainbow
TTITLE15=A. Shaw - What is this thing called love
TTITLE16=Ella Fitzgerald - Basin' Street Blues
TTITLE17=Duke Ellington - Take the a'train
EXTD=YEAR: 1990
EXTT0=
EXTT1=
EXTT2=
EXTT3=
EXTT4=
EXTT5=
EXTT6=
EXTT7=
EXTT8=
EXTT9=
EXTT10=
EXTT11=
EXTT12=
EXTT13=
EXTT14=
EXTT15=
EXTT16=
EXTT17=
PLAYORDER=
